<svg width="67" height="76" viewBox="0 0 67 76" fill="none" xmlns="http://www.w3.org/2000/svg">
<path d="M30.8627 70.8873C30.8627 73.6346 30.8627 73.6854 30.8627 75.8618C29.5897 75.8618 23.0195 75.8618 18.3136 75.8618C16.1176 75.8618 20.8235 74.9291 20.8235 70.8873C20.8235 68.1399 23.0708 65.9127 25.8431 65.9127C28.6153 65.9127 30.8627 68.1399 30.8627 70.8873Z" fill="url(#paint0_linear_250_41)"/>
<path d="M35.8824 70.8873C35.8824 73.6346 35.8824 73.6854 35.8824 75.8618C37.1554 75.8618 47.804 76.1727 47.804 75.8618C47.804 73.6854 45.9216 74.9291 45.9216 70.8873C45.9216 68.1399 43.6743 65.9127 40.902 65.9127C38.1298 65.9127 35.8824 68.1399 35.8824 70.8873Z" fill="url(#paint1_linear_250_41)"/>
<path d="M28.3529 4.35278H38.3921V8.70551H28.3529V4.35278Z" fill="url(#paint2_linear_250_41)"/>
<path d="M26.4706 2.90182C26.4706 1.29919 27.7698 0 29.3724 0H38.0001C39.6028 0 40.902 1.29919 40.902 2.90182C40.902 3.70313 40.2524 4.35273 39.451 4.35273H27.9215C27.1202 4.35273 26.4706 3.70313 26.4706 2.90182Z" fill="url(#paint3_linear_250_41)"/>
<path d="M33.3725 7.7055C51.2429 7.7055 65.7451 22.0646 65.7451 39.7964C65.7451 57.5282 51.2429 71.8873 33.3725 71.8873C15.5022 71.8873 1 57.5282 1 39.7964C1 22.0646 15.5022 7.7055 33.3725 7.7055Z" fill="white" stroke="url(#paint4_linear_250_41)" stroke-width="2"/>
<path d="M33.3725 7.7055C51.2429 7.7055 65.7451 22.0646 65.7451 39.7964C65.7451 57.5282 51.2429 71.8873 33.3725 71.8873C15.5022 71.8873 1 57.5282 1 39.7964C1 22.0646 15.5022 7.7055 33.3725 7.7055Z" stroke="url(#paint5_linear_250_41)" stroke-width="2"/>
<ellipse cx="33.3726" cy="39.7964" rx="2.5098" ry="2.48727" fill="black"/>
<rect x="32.1177" y="8.70544" width="2.5098" height="4.97455" rx="1.2549" fill="black"/>
<rect x="32.1177" y="65.9127" width="2.5098" height="4.97455" rx="1.2549" fill="black"/>
<rect x="7.01965" y="38.5527" width="2.48727" height="5.01961" rx="1.24364" transform="rotate(90 7.01965 38.5527)" fill="black"/>
<rect width="2.49856" height="4.99713" rx="1.24928" transform="matrix(0.710288 0.703911 -0.710288 0.703911 13.8508 57.3842)" fill="black"/>
<rect width="2.49856" height="4.99713" rx="1.24928" transform="matrix(0.710288 -0.703911 0.710288 0.703911 51.1195 59.1428)" fill="black"/>
<rect x="64.7451" y="38.5527" width="2.48727" height="5.01961" rx="1.24364" transform="rotate(90 64.7451 38.5527)" fill="black"/>
<rect width="2.49856" height="4.99713" rx="1.24928" transform="matrix(0.710288 0.703911 -0.710288 0.703911 54.6689 16.9325)" fill="black"/>
<rect width="2.49856" height="4.99713" rx="1.24928" transform="matrix(0.710288 -0.703911 0.710288 0.703911 10.3015 18.6912)" fill="black"/>
<path d="M50.3137 2.48718C55.0196 2.79809 61.9216 5.90719 66 12.4363" stroke="white" stroke-linecap="round"/>
<path d="M49.0588 6.21826C53.0118 6.47088 58.8094 8.99702 62.2353 14.3019" stroke="white" stroke-linecap="round"/>
<path d="M49.0588 9.9491C51.5059 10.1046 55.7224 12.5918 57.8432 15.8564" stroke="white" stroke-linecap="round"/>
<path d="M50.9412 57.705C51.2186 57.705 51.4434 57.4822 51.4434 57.2073L51.4434 52.7276C51.4434 52.4527 51.2186 52.2299 50.9412 52.2299C50.6638 52.2299 50.4389 52.4527 50.4389 52.7276L50.4389 56.7096L46.4209 56.7096C46.1436 56.7096 45.9187 56.9324 45.9187 57.2073C45.9187 57.4822 46.1436 57.705 46.4209 57.705L50.9412 57.705ZM33.0174 40.1483L50.586 57.5593L51.2963 56.8553L33.7277 39.4444L33.0174 40.1483Z" fill="black"/>
<path d="M43.9137 30.4878C43.9239 30.2131 43.7075 29.982 43.4303 29.9717L38.9133 29.8034C38.6361 29.7931 38.4031 30.0074 38.3928 30.2821C38.3826 30.5568 38.599 30.7879 38.8762 30.7982L42.8913 30.9478L42.7431 34.927C42.7329 35.2017 42.9493 35.4328 43.2265 35.4431C43.5037 35.4535 43.7367 35.2391 43.7469 34.9644L43.9137 30.4878ZM33.7143 40.0684L43.7536 30.8341L43.07 30.1042L33.0308 39.3386L33.7143 40.0684Z" fill="black"/>
<defs>
<linearGradient id="paint0_linear_250_41" x1="30.8627" y1="65.9127" x2="16.0889" y2="70.1772" gradientUnits="userSpaceOnUse">
<stop stop-color="#8A0041"/>
<stop offset="1" stop-color="#D50065"/>
</linearGradient>
<linearGradient id="paint1_linear_250_41" x1="35.8824" y1="65.9127" x2="49.5013" y2="69.4324" gradientUnits="userSpaceOnUse">
<stop stop-color="#8A0041"/>
<stop offset="1" stop-color="#D50065"/>
</linearGradient>
<linearGradient id="paint2_linear_250_41" x1="38.3921" y1="4.35278" x2="28.6386" y2="9.272" gradientUnits="userSpaceOnUse">
<stop stop-color="#8A0041"/>
<stop offset="1" stop-color="#D50065"/>
</linearGradient>
<linearGradient id="paint3_linear_250_41" x1="33.3725" y1="4.35273" x2="33.3723" y2="1.61991e-07" gradientUnits="userSpaceOnUse">
<stop stop-color="#8A0041"/>
<stop offset="1" stop-color="#D50065"/>
</linearGradient>
<linearGradient id="paint4_linear_250_41" x1="64.7451" y1="70.8873" x2="-8.17056" y2="54.7981" gradientUnits="userSpaceOnUse">
<stop stop-color="#FF8540"/>
<stop offset="1" stop-color="#EEFF00"/>
</linearGradient>
<linearGradient id="paint5_linear_250_41" x1="64.7451" y1="70.8873" x2="-8.17056" y2="54.7981" gradientUnits="userSpaceOnUse">
<stop stop-color="#FF8540"/>
<stop offset="1" stop-color="#EEFF00"/>
</linearGradient>
</defs>
</svg>
