<svg width="64" height="60" viewBox="0 0 64 60" fill="none" xmlns="http://www.w3.org/2000/svg">
<path d="M32 16.3975C36.5879 16.3975 40.3271 12.7716 40.3271 8.32275C40.3271 3.8739 36.5879 0.236084 32 0.236084C27.4121 0.236084 23.6729 3.86202 23.6729 8.31087C23.6729 12.7597 27.4121 16.3975 32 16.3975ZM32 2.26299C35.4439 2.26299 38.2485 4.98227 38.2485 8.32215C38.248 11.6617 35.4438 14.3813 32 14.3813C28.5556 14.3813 25.7515 11.6615 25.7515 8.32215C25.7515 4.98263 28.5558 2.26299 32 2.26299Z" fill="white"/>
<path d="M51.79 21.4424C55.2339 21.4424 58.0385 18.7231 58.0385 15.3832C58.0385 12.0437 55.2343 9.3241 51.79 9.3241C48.3461 9.3241 45.5415 12.0434 45.5415 15.3832C45.5415 18.7232 48.3463 21.4424 51.79 21.4424ZM51.79 11.352C54.0903 11.352 55.9599 13.1649 55.9599 15.3955C55.9599 17.626 54.0903 19.439 51.79 19.439C49.4898 19.4385 47.6206 17.6137 47.6206 15.3836C47.6206 13.1648 49.4898 11.3519 51.79 11.3519V11.352Z" fill="white"/>
<path d="M57.6825 21.7648L54.6938 27.4779L54.0912 25.1521H54.9154V23.1364H48.667V25.1402H49.7124L49.0361 27.7524L45.8993 21.7648C45.8993 21.7648 44.9277 22.2061 44.8905 22.2179C43.3778 18.5324 39.1708 16.8268 39.1708 16.8268L35.3456 24.1979L34.3739 20.4408H35.1244V18.4252H28.8759V20.4408H29.6264L28.6547 24.1979L24.8294 16.8268C24.8294 16.8268 20.7337 18.2937 19.1097 22.2179C19.0726 22.2061 18.1009 21.7648 18.1009 21.7648L15.1121 27.4779L14.5096 25.1521H15.3338V23.1364H9.08532V25.1402H10.1307L9.45446 27.7524L6.31771 21.7648C6.31771 21.7648 0.758087 23.4945 0.758087 29.136V42.6378H3.88209V57.8087H20.5121V41.6463H22.6278V59.8232H41.3728V41.6463H43.4515V57.8075H60.0815L60.081 42.6366H63.2421V29.1347C63.2421 23.9226 57.6825 21.764 57.6825 21.764L57.6825 21.7648ZM12.2825 25.1403H12.3684L13.6722 30.2213L12.2088 33.012L10.8929 30.5072L12.2825 25.1403ZM18.4329 55.7815H13.2546V44.6774H11.1755V55.7815H5.96014V40.6106H2.83614V29.1248C2.83614 27.2522 3.82002 25.5107 5.39476 24.4733L12.2093 37.4745L18.4578 25.5475L18.4329 55.7815ZM31.7654 20.4409H32.2205L33.9055 26.9651L31.9992 30.6511L30.0925 26.9655L31.7654 20.4409ZM43.4504 39.6203H39.2805V57.7973H33.032L33.0325 43.6627H30.9539V57.7973H24.7054V39.6203H20.5355V25.4858C20.5355 23.0643 21.827 20.8224 23.8934 19.534L31.9994 35.1461L40.0926 19.534C42.159 20.8224 43.4505 23.0643 43.4505 25.4858L43.4504 39.6203ZM51.8513 25.1403H51.9372L53.2409 30.2213L51.7898 33.012L50.4739 30.5072L51.8513 25.1403ZM61.1623 40.6094H58.0011V55.7803H52.8229V44.6762H50.7443V55.7803H45.5411V25.544L51.7896 37.471L58.6041 24.4698C60.191 25.5195 61.1628 27.2487 61.1628 29.1213L61.1623 40.6094Z" fill="white"/>
<path d="M12.2088 21.4424C15.6526 21.4424 18.4573 18.7231 18.4573 15.3832C18.4573 12.0437 15.653 9.3241 12.2088 9.3241C8.76489 9.3241 5.96027 12.0434 5.96027 15.3832C5.96027 18.7232 8.76502 21.4424 12.2088 21.4424ZM12.2088 11.352C14.509 11.352 16.3786 13.1649 16.3786 15.3955C16.3786 17.626 14.509 19.439 12.2088 19.439C9.90852 19.439 8.03889 17.626 8.03889 15.3955C8.05159 13.1649 9.92127 11.352 12.2088 11.352Z" fill="white"/>
</svg>
