<svg width="64" height="64" viewBox="0 0 64 64" fill="none" xmlns="http://www.w3.org/2000/svg">
<g clip-path="url(#clip0_250_218)">
<g filter="url(#filter0_d_250_218)">
<path fill-rule="evenodd" clip-rule="evenodd" d="M59.7012 14.7712L47.4791 2.54907C46.9337 2.00366 46.1945 1.69751 45.424 1.69751H17.539C14.9755 1.69751 12.8964 3.77663 12.8964 6.34013V11.9549C12.8964 12.4393 13.3187 12.8162 13.7992 12.7552C14.1732 12.7068 14.5521 12.6805 14.934 12.6805H14.9359C15.2518 12.6805 15.5648 12.7 15.8759 12.7347C16.3544 12.7879 16.7728 12.4158 16.7728 11.9344V6.34013C16.7728 5.91874 17.1176 5.57352 17.5394 5.57352H44.8269V13.3381C44.8269 15.5848 46.6658 17.4231 48.9129 17.4231H56.6776V58.6281C56.6776 59.0495 56.3328 59.3947 55.91 59.3947H17.5387C17.1154 59.3947 16.7721 59.051 16.7721 58.6281V51.5041C16.7721 51.0837 15.8014 49.9045 15.2599 49.1848C15.0543 48.9104 14.6486 48.8981 14.4279 49.1604C13.8302 49.8703 12.8961 51.0564 12.8961 51.4826V58.6281C12.8961 61.1809 14.985 63.2697 17.5387 63.2697H55.9112C58.464 63.2697 60.5529 61.1809 60.5529 58.6281V16.8256C60.5529 16.0556 60.2467 15.3164 59.7013 14.7705L59.7012 14.7712ZM14.82 23.0232C18.0636 23.0232 20.695 25.6546 20.695 28.8982C20.695 32.1438 18.0636 34.7732 14.82 34.7732C11.5754 34.7732 8.945 32.1438 8.945 28.8982C8.945 25.6546 11.5754 23.0232 14.82 23.0232ZM17.3282 19.3011C17.3282 19.4026 17.3234 19.5037 17.3107 19.6014C17.3502 19.51 17.3951 19.4202 17.4454 19.3318C18.1383 18.1316 19.6729 17.7205 20.8732 18.4134C22.0734 19.1062 22.4846 20.6409 21.7916 21.8401C21.7414 21.9295 21.6862 22.0135 21.6261 22.0921C21.7057 22.033 21.7897 21.9778 21.8781 21.9265C23.0773 21.2337 24.6124 21.6458 25.3048 22.845C25.9977 24.0452 25.5866 25.5799 24.3864 26.2728C24.298 26.323 24.2091 26.3685 24.1168 26.4085C24.2145 26.3958 24.3165 26.3899 24.4171 26.3899C25.8034 26.389 26.9274 27.513 26.9274 28.8982C26.9264 30.2844 25.8033 31.4084 24.4181 31.4084C24.3166 31.4084 24.2155 31.4016 24.1168 31.3899C24.2091 31.4294 24.298 31.4734 24.3864 31.5246C25.5866 32.2175 25.9986 33.7521 25.3048 34.9524C24.612 36.1526 23.0773 36.5646 21.8781 35.8709C21.7897 35.8206 21.7047 35.7644 21.6261 35.7053C21.6852 35.7849 21.7414 35.8679 21.7917 35.9563C22.4845 37.1565 22.0734 38.6907 20.8732 39.3841C19.673 40.0779 18.1383 39.6648 17.4454 38.4656C17.3952 38.3772 17.3497 38.2874 17.3107 38.1961C17.3224 38.2947 17.3283 38.3948 17.3283 38.4973C17.3283 39.8826 16.2052 41.0056 14.82 41.0056C13.4338 41.0056 12.3108 39.8825 12.3108 38.4973C12.3108 38.3958 12.3166 38.2947 12.3283 38.1961C12.2898 38.2874 12.2448 38.3772 12.1936 38.4656C11.5007 39.6648 9.96607 40.0778 8.76682 39.3841C7.56662 38.6902 7.15457 37.1566 7.84739 35.9563C7.89866 35.8679 7.95383 35.7839 8.01291 35.7044C7.93332 35.7634 7.85031 35.8206 7.76194 35.8709C6.56271 36.5647 5.02756 36.1526 4.33419 34.9524C3.64131 33.7522 4.05343 32.2175 5.25363 31.5246C5.342 31.4734 5.43088 31.4289 5.52315 31.3889C5.42452 31.4016 5.32344 31.4075 5.22188 31.4075C3.83663 31.4084 2.71263 30.2844 2.71263 28.8982C2.7136 27.513 3.83665 26.389 5.22087 26.389C5.32341 26.389 5.42449 26.3958 5.52215 26.4075C5.43084 26.3689 5.34198 26.323 5.2536 26.2728C4.0534 25.5799 3.64135 24.0453 4.33416 22.845C5.02801 21.6458 6.56266 21.2336 7.76191 21.9265C7.85029 21.9778 7.93427 22.033 8.01386 22.0921C7.95478 22.0125 7.89863 21.9295 7.84736 21.8401C7.15449 20.6409 7.56562 19.1057 8.7668 18.4134C9.96602 17.7205 11.5012 18.1316 12.1936 19.3318C12.2448 19.4202 12.2893 19.5101 12.3283 19.6014C12.3166 19.5027 12.3107 19.4016 12.3107 19.3011C12.3107 17.9148 13.4338 16.7918 14.82 16.7918C16.2052 16.7918 17.3282 17.9149 17.3282 19.3011ZM13.6002 42.5186C12.7794 42.2695 12.0665 41.7774 11.5421 41.1254C10.3951 41.5693 9.06462 41.5112 7.91962 40.8501C7.54462 40.6333 7.21504 40.3676 6.93622 40.0654L2.52797 47.5488C2.44643 47.6884 2.46303 47.8569 2.57045 47.978C2.67788 48.0981 2.84389 48.1347 2.99184 48.0693L7.23847 46.1869C7.3537 46.1356 7.47479 46.1444 7.58026 46.2113C7.68573 46.2772 7.74677 46.3827 7.75263 46.5067L7.9201 50.8339C7.92792 50.9974 8.03729 51.1332 8.19695 51.1737C8.35662 51.2142 8.51775 51.1464 8.60077 51.0043L13.5993 42.5189L13.6002 42.5186ZM21.7194 40.8501C20.5753 41.5097 19.2437 41.5688 18.0977 41.1255C17.5738 41.7773 16.8595 42.2695 16.0396 42.5186L21.0371 51.004C21.1206 51.1465 21.2813 51.2144 21.4419 51.1734C21.6006 51.1329 21.7105 50.9971 21.7183 50.8335L21.8867 46.5064C21.8916 46.3824 21.9527 46.2769 22.0581 46.211C22.1646 46.1441 22.2857 46.1353 22.3999 46.1866L26.6474 48.069C26.7949 48.1349 26.9614 48.0983 27.0678 47.9777C27.1753 47.8566 27.1928 47.6881 27.1103 47.5485L22.7021 40.0651C22.4223 40.3673 22.0937 40.633 21.7187 40.8497L21.7194 40.8501ZM49.8394 46.3549V44.5366C49.8394 44.2392 49.6011 43.9902 49.3164 43.9902H33.0089C32.7243 43.9902 32.486 44.2363 32.486 44.5366V46.3549C32.486 46.6543 32.7213 46.9004 33.0089 46.9004H49.3164C49.604 46.9004 49.8394 46.6523 49.8394 46.3549ZM49.8394 34.4707V32.6543C49.8394 32.3579 49.603 32.1109 49.3208 32.1109H32.6258C32.3431 32.1109 32.1063 32.356 32.1063 32.6543V34.4707C32.1063 34.769 32.3397 35.0151 32.6258 35.0151H49.3208C49.6055 35.0151 49.8394 34.7681 49.8394 34.4707ZM49.3164 40.9599C49.604 40.9599 49.8394 40.7119 49.8394 40.4145V38.5962C49.8394 38.2978 49.6011 38.0498 49.3164 38.0498H32.7989C32.5143 38.0498 32.276 38.2959 32.276 38.5962V40.4145C32.276 40.7138 32.5113 40.9599 32.7989 40.9599H49.3164ZM42.9229 28.9287H32.7945C32.5089 28.9287 32.275 28.6836 32.275 28.3843V26.5689C32.275 26.2696 32.5104 26.0244 32.7945 26.0244H42.9229C43.2066 26.0244 43.4424 26.2715 43.4424 26.5689V28.3843C43.4424 28.6826 43.2081 28.9287 42.9229 28.9287Z" fill="white"/>
</g>
</g>
<defs>
<filter id="filter0_d_250_218" x="-1.52338" y="1.69751" width="66.0762" height="69.5723" filterUnits="userSpaceOnUse" color-interpolation-filters="sRGB">
<feFlood flood-opacity="0" result="BackgroundImageFix"/>
<feColorMatrix in="SourceAlpha" type="matrix" values="0 0 0 0 0 0 0 0 0 0 0 0 0 0 0 0 0 0 127 0" result="hardAlpha"/>
<feOffset dy="4"/>
<feGaussianBlur stdDeviation="2"/>
<feComposite in2="hardAlpha" operator="out"/>
<feColorMatrix type="matrix" values="0 0 0 0 0 0 0 0 0 0 0 0 0 0 0 0 0 0 0.25 0"/>
<feBlend mode="normal" in2="BackgroundImageFix" result="effect1_dropShadow_250_218"/>
<feBlend mode="normal" in="SourceGraphic" in2="effect1_dropShadow_250_218" result="shape"/>
</filter>
<clipPath id="clip0_250_218">
<rect width="64" height="64" fill="white"/>
</clipPath>
</defs>
</svg>
