<svg width="54" height="54" viewBox="0 0 54 54" fill="none" xmlns="http://www.w3.org/2000/svg">
<path fill-rule="evenodd" clip-rule="evenodd" d="M27 0.0100098C41.9062 0.0100098 53.99 12.0935 53.99 27C53.99 41.9063 41.906 53.99 27 53.99C12.0937 53.99 0.00999451 41.906 0.00999451 27C0.00999451 12.0938 12.0935 0.0100098 27 0.0100098ZM27 4.16188C14.3875 4.16188 4.16249 14.387 4.16249 26.9994C4.16249 39.6118 14.3876 49.8369 27 49.8369C39.6124 49.8369 49.8375 39.6123 49.8375 26.9994C49.8375 14.3865 39.6129 4.16188 27 4.16188ZM39.2495 27.3644L39.6221 27.4044C40.7466 27.6281 41.4776 28.7208 41.2539 29.8453C39.9122 36.5973 33.9649 41.5323 27.0002 41.5323C19.9459 41.5323 13.9827 36.626 12.7139 29.8213C12.504 28.6943 13.2471 27.6099 14.3746 27.3999C15.5015 27.1895 16.5859 27.9331 16.7959 29.06C17.6968 33.8907 21.9376 37.3799 27.0006 37.3799C31.9747 37.3799 36.2247 33.8535 37.1817 29.0362C37.3804 28.0367 38.2662 27.3482 39.2501 27.3643L39.2495 27.3644ZM20.772 14.5431C23.065 14.5431 24.9244 16.402 24.9244 18.6955C24.9244 20.9885 23.065 22.8479 20.772 22.8479C18.4785 22.8479 16.6196 20.9885 16.6196 18.6955C16.6196 16.402 18.4785 14.5431 20.772 14.5431ZM33.2285 14.5431C35.522 14.5431 37.3809 16.402 37.3809 18.6955C37.3809 20.9885 35.522 22.8479 33.2285 22.8479C30.9355 22.8479 29.0766 20.9885 29.0766 18.6955C29.0766 16.402 30.9355 14.5431 33.2285 14.5431Z" fill="white"/>
</svg>
